<?xml version="1.0" encoding="UTF-8" standalone="no"?>
<svg
   xmlns:dc="http://purl.org/dc/elements/1.1/"
   xmlns:cc="http://creativecommons.org/ns#"
   xmlns:rdf="http://www.w3.org/1999/02/22-rdf-syntax-ns#"
   xmlns:svg="http://www.w3.org/2000/svg"
   xmlns="http://www.w3.org/2000/svg"
   xmlns:sodipodi="http://sodipodi.sourceforge.net/DTD/sodipodi-0.dtd"
   xmlns:inkscape="http://www.inkscape.org/namespaces/inkscape"
   inkscape:version="1.0 (4035a4fb49, 2020-05-01)"
   height="180.008"
   width="288"
   sodipodi:docname="icona_mail.svg"
   x="0px"
   y="0px"
   version="1.1"
   viewBox="0 0 288 180.008"
   xml:space="preserve"
   enable-background="new 0 0 360 360"
   id="Layer_1"><defs
   id="defs23">
	
	
</defs><sodipodi:namedview
   inkscape:current-layer="Layer_1"
   inkscape:window-maximized="1"
   inkscape:window-y="-8"
   inkscape:window-x="-8"
   inkscape:cy="57.202178"
   inkscape:cx="144"
   inkscape:zoom="2.4388889"
   showgrid="false"
   id="namedview21"
   inkscape:window-height="1027"
   inkscape:window-width="1920"
   inkscape:pageshadow="2"
   inkscape:pageopacity="0"
   guidetolerance="10"
   gridtolerance="10"
   objecttolerance="10"
   borderopacity="1"
   bordercolor="#666666"
   pagecolor="#ffffff" />
<path
   d="m 323,233.204 c 0,19.77 -16.03,35.8 -35.8,35.8 H 0.8 c -19.771,0 -35.8,-16.03 -35.8,-35.8 v -286.4 c 0,-19.771 16.029,-35.8 35.802,-35.8 h 286.4 c 19.77,0 35.8,16.029 35.8,35.802 v 286.4 z"
   fill="#ffffff"
   id="path2" />
<g
   transform="translate(-36,-89.996)"
   id="g855"><g
     id="g16">
	<path
   d="M 186.26,181.27 321.53,104.306 C 317.46,95.837 308.81,89.996 298.8,89.996 H 61.2 c -10.015,0 -18.664,5.841 -22.728,14.303 l 135.27,76.964 c 3.44,1.96 9.08,1.96 12.52,0.01 z"
   id="path8" />
	<path
   d="M 145.46,171.43 36.65,109.52 c -0.421,1.826 -0.65,3.725 -0.65,5.679 v 125.36 l 109.46,-69.13 z"
   id="path10" />
	<path
   d="M 324,243.93 V 115.2 c 0,-1.954 -0.229,-3.853 -0.65,-5.679 l -111.62,63.506 112.27,70.9 z"
   id="path12" />
	<path
   d="m 206.81,175.83 -20.55,11.692 c -3.442,1.958 -9.074,1.958 -12.516,0 L 150.39,174.234 36.06,246.444 c 0.843,13.15 11.773,23.56 25.14,23.56 h 237.6 c 12.292,0 22.522,-8.802 24.746,-20.445 l -116.74,-73.73 z"
   id="path14" />
</g></g>
<metadata
   id="metadata18"><rdf:RDF><cc:Work><dc:format>image/svg+xml</dc:format><dc:type
         rdf:resource="http://purl.org/dc/dcmitype/StillImage" /><cc:license
         rdf:resource="http://creativecommons.org/licenses/publicdomain/" /><dc:publisher><cc:Agent
           rdf:about="http://openclipart.org/"><dc:title>Openclipart</dc:title></cc:Agent></dc:publisher><dc:title></dc:title></cc:Work><cc:License
       rdf:about="http://creativecommons.org/licenses/publicdomain/"><cc:permits
         rdf:resource="http://creativecommons.org/ns#Reproduction" /><cc:permits
         rdf:resource="http://creativecommons.org/ns#Distribution" /><cc:permits
         rdf:resource="http://creativecommons.org/ns#DerivativeWorks" /></cc:License></rdf:RDF></metadata></svg>
